<svg width="19" height="19" viewBox="0 0 19 19" fill="none" xmlns="http://www.w3.org/2000/svg">
<path d="M15.625 0.75H3.375C2.67881 0.75 2.01113 1.02656 1.51884 1.51884C1.02656 2.01113 0.75 2.67881 0.75 3.375V4.39875C0.749875 4.76008 0.824346 5.11754 0.96875 5.44875V5.50125C1.09237 5.7821 1.26747 6.03733 1.485 6.25375L6.875 11.6088V17.375C6.8747 17.5237 6.91231 17.67 6.98426 17.8002C7.05622 17.9303 7.16015 18.0399 7.28625 18.1188C7.4255 18.2051 7.58618 18.2505 7.75 18.25C7.88697 18.2492 8.02184 18.2162 8.14375 18.1538L11.6438 16.4038C11.788 16.331 11.9094 16.2198 11.9943 16.0823C12.0793 15.9449 12.1245 15.7866 12.125 15.625V11.6088L17.48 6.25375C17.6975 6.03733 17.8726 5.7821 17.9963 5.50125V5.44875C18.1527 5.12013 18.2391 4.76256 18.25 4.39875V3.375C18.25 2.67881 17.9734 2.01113 17.4812 1.51884C16.9889 1.02656 16.3212 0.75 15.625 0.75ZM10.6287 10.6288C10.5477 10.7105 10.4835 10.8075 10.44 10.9141C10.3964 11.0207 10.3743 11.1348 10.375 11.25V15.0825L8.625 15.9575V11.25C8.62567 11.1348 8.60359 11.0207 8.56005 10.9141C8.51651 10.8075 8.45235 10.7105 8.37125 10.6288L3.73375 6H15.2663L10.6287 10.6288ZM16.5 4.25H2.5V3.375C2.5 3.14294 2.59219 2.92038 2.75628 2.75628C2.92038 2.59219 3.14294 2.5 3.375 2.5H15.625C15.8571 2.5 16.0796 2.59219 16.2437 2.75628C16.4078 2.92038 16.5 3.14294 16.5 3.375V4.25Z" fill="#00C2FF"/>
</svg>
